<svg xmlns="http://www.w3.org/2000/svg" width="84.9" height="53" viewBox="0 0 84.9 53">
  <g id="ambulance" transform="translate(0 -96)">
    <path id="Trazado_1" data-name="Trazado 1" d="M78.563,338.658a1.246,1.246,0,0,0-1.246,1.246,1.412,1.412,0,1,1-1.412-1.412,1.246,1.246,0,1,0,0-2.492,3.9,3.9,0,1,0,3.9,3.9A1.246,1.246,0,0,0,78.563,338.658Z" transform="translate(-60.038 -200.125)"/>
    <path id="Trazado_2" data-name="Trazado 2" d="M398.563,338.658a1.246,1.246,0,0,0-1.246,1.246,1.412,1.412,0,1,1-1.412-1.412,1.246,1.246,0,1,0,0-2.492,3.9,3.9,0,1,0,3.9,3.9A1.246,1.246,0,0,0,398.563,338.658Z" transform="translate(-326.871 -200.125)"/>
    <path id="Trazado_3" data-name="Trazado 3" d="M81.416,119.36l-.144-.072a1.263,1.263,0,0,0-.119-.052L76.82,117.61l-1.458-11.416c0-.014,0-.028-.006-.041-.469-2.892-3.009-4.836-6.322-4.836H67.621V99.9a3.9,3.9,0,1,0-7.809,0v1.412h-1.5V99.9a3.909,3.909,0,0,0-3.9-3.9H3.9A3.909,3.909,0,0,0,0,99.9v37.216a3.909,3.909,0,0,0,3.9,3.9H6.732a9.219,9.219,0,0,0,18.269,0H59.9a9.219,9.219,0,0,0,18.269,0h4.157A2.578,2.578,0,0,0,84.9,138.45V123.829C84.9,121.1,83.208,120.255,81.416,119.36ZM15.867,146.508a6.736,6.736,0,0,1-6.729-6.727v0a6.729,6.729,0,1,1,6.729,6.731Zm39.958-7.975H25a9.219,9.219,0,0,0-18.269,0H3.9a1.414,1.414,0,0,1-1.412-1.412v-9.387H55.824Zm0-13.292H2.492V103.809H55.824Zm0-23.925H2.492V99.9A1.414,1.414,0,0,1,3.9,98.492H54.412A1.414,1.414,0,0,1,55.824,99.9ZM62.3,99.9a1.412,1.412,0,0,1,2.824,0v1.412H62.3Zm-3.987,3.9H69.033c1.647,0,3.523.716,3.859,2.723l1.371,10.735H58.317Zm10.716,42.7A6.737,6.737,0,0,1,62.3,139.78h0a6.729,6.729,0,1,1,6.729,6.73Zm13.375-17.279H81a.088.088,0,0,1-.083-.083v-1.329a.088.088,0,0,1,.083-.083h1.412Zm0-3.987H75.679a1.246,1.246,0,1,0,0,2.492h2.746c0,.028,0,.055,0,.083v1.329A2.578,2.578,0,0,0,81,131.721h1.412v6.729a.083.083,0,0,1-.083.083H78.167a9.219,9.219,0,0,0-18.269,0H58.317v-10.8h4.071a1.246,1.246,0,1,0,0-2.492H58.317v-5.483H75.453l4.763,1.788.087.044c1.737.867,2.1,1.09,2.1,2.239Z"/>
    <path id="Trazado_4" data-name="Trazado 4" d="M403.907,272h-2.658a1.246,1.246,0,1,0,0,2.492h2.658a1.246,1.246,0,1,0,0-2.492Z" transform="translate(-333.545 -146.759)"/>
    <path id="Trazado_5" data-name="Trazado 5" d="M65.246,169.138h5.4v5.4a1.246,1.246,0,1,0,2.492,0v-5.4h5.4a1.246,1.246,0,1,0,0-2.492h-5.4v-5.4a1.246,1.246,0,1,0-2.492,0v5.4h-5.4a1.246,1.246,0,0,0,0,2.492Z" transform="translate(-53.367 -53.367)"/>
  </g>
</svg>
